<svg xmlns="http://www.w3.org/2000/svg" xmlns:xlink="http://www.w3.org/1999/xlink" width="31.828" height="31.82" viewBox="0 0 31.828 31.82">
  <defs>
    <radialGradient id="radial-gradient" cx="0.121" cy="0.939" r="1.156" gradientTransform="translate(-0.672 0.423) rotate(-49.601)" gradientUnits="objectBoundingBox">
      <stop offset="0" stop-color="#f89f32"/>
      <stop offset="0.441" stop-color="#e92855"/>
      <stop offset="1" stop-color="#a62799"/>
    </radialGradient>
    <linearGradient id="linear-gradient" x1="0.141" y1="0.059" x2="0.438" y2="0.459" gradientUnits="objectBoundingBox">
      <stop offset="0" stop-color="#76389f"/>
      <stop offset="1" stop-color="#7f329c" stop-opacity="0"/>
    </linearGradient>
  </defs>
  <g id="Group_121" data-name="Group 121" transform="translate(-686 -1958)">
    <path id="instagram" d="M15.842,39.577A8.158,8.158,0,1,0,24,47.735,8.145,8.145,0,0,0,15.842,39.577Zm0,13.462a5.3,5.3,0,1,1,5.3-5.3,5.314,5.314,0,0,1-5.3,5.3Zm10.395-13.8a1.9,1.9,0,1,1-1.9-1.9A1.9,1.9,0,0,1,26.237,39.243Zm5.4,1.931a9.417,9.417,0,0,0-2.57-6.667,9.479,9.479,0,0,0-6.667-2.57c-2.627-.149-10.5-.149-13.129,0A9.465,9.465,0,0,0,2.607,34.5a9.448,9.448,0,0,0-2.57,6.667c-.149,2.627-.149,10.5,0,13.129a9.417,9.417,0,0,0,2.57,6.667,9.491,9.491,0,0,0,6.667,2.57c2.627.149,10.5.149,13.129,0a9.417,9.417,0,0,0,6.667-2.57,9.479,9.479,0,0,0,2.57-6.667C31.79,51.669,31.79,43.8,31.641,41.174Zm-3.394,15.94a5.37,5.37,0,0,1-3.025,3.025c-2.095.831-7.065.639-9.38.639s-7.292.185-9.38-.639a5.37,5.37,0,0,1-3.025-3.025C2.607,55.02,2.8,50.05,2.8,47.735s-.185-7.292.639-9.38a5.37,5.37,0,0,1,3.025-3.025c2.095-.831,7.065-.639,9.38-.639s7.292-.185,9.38.639a5.37,5.37,0,0,1,3.025,3.025c.831,2.095.639,7.065.639,9.38S29.077,55.027,28.247,57.115Z" transform="translate(686.075 1926.175)" fill="url(#radial-gradient)"/>
    <path id="instagram-2" data-name="instagram" d="M15.842,39.577A8.158,8.158,0,1,0,24,47.735,8.145,8.145,0,0,0,15.842,39.577Zm0,13.462a5.3,5.3,0,1,1,5.3-5.3,5.314,5.314,0,0,1-5.3,5.3Zm10.395-13.8a1.9,1.9,0,1,1-1.9-1.9A1.9,1.9,0,0,1,26.237,39.243Zm5.4,1.931a9.417,9.417,0,0,0-2.57-6.667,9.479,9.479,0,0,0-6.667-2.57c-2.627-.149-10.5-.149-13.129,0A9.465,9.465,0,0,0,2.607,34.5a9.448,9.448,0,0,0-2.57,6.667c-.149,2.627-.149,10.5,0,13.129a9.417,9.417,0,0,0,2.57,6.667,9.491,9.491,0,0,0,6.667,2.57c2.627.149,10.5.149,13.129,0a9.417,9.417,0,0,0,6.667-2.57,9.479,9.479,0,0,0,2.57-6.667C31.79,51.669,31.79,43.8,31.641,41.174Zm-3.394,15.94a5.37,5.37,0,0,1-3.025,3.025c-2.095.831-7.065.639-9.38.639s-7.292.185-9.38-.639a5.37,5.37,0,0,1-3.025-3.025C2.607,55.02,2.8,50.05,2.8,47.735s-.185-7.292.639-9.38a5.37,5.37,0,0,1,3.025-3.025c2.095-.831,7.065-.639,9.38-.639s7.292-.185,9.38.639a5.37,5.37,0,0,1,3.025,3.025c.831,2.095.639,7.065.639,9.38S29.077,55.027,28.247,57.115Z" transform="translate(686.075 1926.175)" fill="url(#linear-gradient)"/>
  </g>
</svg>
