<svg xmlns="http://www.w3.org/2000/svg" width="31.82" height="31.82" viewBox="0 0 31.82 31.82">
  <path id="linkedin" d="M29.548,32H2.266A2.283,2.283,0,0,0,0,34.294V61.526A2.283,2.283,0,0,0,2.266,63.82H29.548a2.289,2.289,0,0,0,2.273-2.294V34.294A2.289,2.289,0,0,0,29.548,32ZM9.617,59.275H4.9V44.089H9.624V59.275ZM7.259,42.015A2.735,2.735,0,1,1,9.994,39.28,2.736,2.736,0,0,1,7.259,42.015ZM27.3,59.275H22.58V51.888c0-1.761-.036-4.027-2.45-4.027-2.458,0-2.834,1.918-2.834,3.9v7.515H12.579V44.089H17.1v2.074h.064a4.967,4.967,0,0,1,4.468-2.45c4.773,0,5.661,3.147,5.661,7.238Z" transform="translate(0 -32)" fill="#0e76a8"/>
</svg>
