<svg xmlns="http://www.w3.org/2000/svg" width="104.659" height="23.933" viewBox="0 0 104.659 23.933"><g transform="translate(-400.99 -127.49)"><path d="M8.51-.454q3.564,0,3.564-5.754a9.632,9.632,0,0,0-.8-4.414,2.8,2.8,0,0,0-2.681-1.5,3.008,3.008,0,0,0-2.763,1.439,7.473,7.473,0,0,0-.883,3.923q0,4.61,1.7,5.787A3.185,3.185,0,0,0,8.51-.454ZM.99-6.307a11.189,11.189,0,0,1,.719-4.2,6.426,6.426,0,0,1,1.929-2.73A8.283,8.283,0,0,1,8.772-15a7.769,7.769,0,0,1,3.319.638,6.759,6.759,0,0,1,2.125,1.471,6.77,6.77,0,0,1,1.308,2.419,11.649,11.649,0,0,1,.539,3.744q0,4.512-2.191,6.833A7.369,7.369,0,0,1,8.265,2.423,6.727,6.727,0,0,1,2.919.216Q.99-1.991.99-6.307Zm16.152-5.558v-2.648h5.526v2.125A5.8,5.8,0,0,1,27.686-15a4.231,4.231,0,0,1,4.3,2.616A5.759,5.759,0,0,1,36.955-15a4.621,4.621,0,0,1,3.629,1.422,6.219,6.219,0,0,1,1.275,4.267V-.781l1.864.1V1.933H35.942V-.552l1.079-.1a1.2,1.2,0,0,0,.7-.278,1.183,1.183,0,0,0,.245-.768V-8.464a6.567,6.567,0,0,0-.409-2.665Q37.151-12,35.647-12a2.9,2.9,0,0,0-2.305.915,3.592,3.592,0,0,0-.8,2.452V-.781l1.8.1V1.933H26.623V-.552L27.7-.65a1.294,1.294,0,0,0,.719-.278,1.082,1.082,0,0,0,.229-.8V-8.464a6.567,6.567,0,0,0-.409-2.665Q27.833-12,26.313-12a2.82,2.82,0,0,0-2.305.948,3.569,3.569,0,0,0-.785,2.354V-.781l1.766.1V1.933H17.272V-.552l1.079-.1a1.294,1.294,0,0,0,.719-.278,1.082,1.082,0,0,0,.229-.8h.033v-9.024a1.22,1.22,0,0,0-.18-.768.889.889,0,0,0-.638-.245Zm37.535-2.648h6.9v2.55l-1.014.065a1,1,0,0,0-.883.785L55.461,1.933h-5L45.881-11.08a1.579,1.579,0,0,0-.343-.621,1.014,1.014,0,0,0-.6-.2l-.948-.065v-2.55h7.683V-11.9l-1.994.1L53.041-1.043h.065L56.376-11.8l-1.7-.1ZM64.092-1.729v-9.057a1.153,1.153,0,0,0-.18-.736.889.889,0,0,0-.638-.245l-1.373-.1v-2.648h5.526v2.452a5.076,5.076,0,0,1,1.831-2.109A5.013,5.013,0,0,1,72.119-15a6.948,6.948,0,0,1,3.09.719v4.872l-3.041.229v-1.5q0-.654-.327-.817a2.128,2.128,0,0,0-.883-.163,2.743,2.743,0,0,0-2.142.932,3.421,3.421,0,0,0-.834,2.37V-.781l2.845.131V1.933H62.065V-.552l1.079-.1a1.294,1.294,0,0,0,.719-.278A1.082,1.082,0,0,0,64.092-1.729ZM87.731-14.513V-.781l1.864.1V1.933H81.813V-.552l1.079-.1A.942.942,0,0,0,83.841-1.7v-9.089a1.145,1.145,0,0,0-.18-.752.842.842,0,0,0-.638-.2L81.879-11.8v-2.714Zm-4.12-2.812a2.349,2.349,0,0,1-.687-1.733,2.4,2.4,0,0,1,.687-1.749,2.4,2.4,0,0,1,1.8-.7,2.456,2.456,0,0,1,1.815.7,2.374,2.374,0,0,1,.7,1.749,2.267,2.267,0,0,1-.7,1.717,2.522,2.522,0,0,1-1.815.67A2.5,2.5,0,0,1,83.612-17.325ZM98.1-.454q3.564,0,3.564-5.754a9.632,9.632,0,0,0-.8-4.414,2.8,2.8,0,0,0-2.681-1.5,3.008,3.008,0,0,0-2.763,1.439,7.473,7.473,0,0,0-.883,3.923q0,4.61,1.7,5.787A3.185,3.185,0,0,0,98.1-.454Zm-7.52-5.853a11.188,11.188,0,0,1,.719-4.2,6.426,6.426,0,0,1,1.929-2.73A8.283,8.283,0,0,1,98.357-15a7.769,7.769,0,0,1,3.319.638,6.759,6.759,0,0,1,2.125,1.471,6.769,6.769,0,0,1,1.308,2.419,11.649,11.649,0,0,1,.539,3.744q0,4.512-2.191,6.833a7.369,7.369,0,0,1-5.607,2.321A6.727,6.727,0,0,1,92.5.216Q90.576-1.991,90.576-6.307Z" transform="translate(400 149)"/><circle cx="3" cy="3" r="3" transform="translate(474 145)"/></g></svg>