<svg xmlns="http://www.w3.org/2000/svg" width="36.354" height="29.526" viewBox="0 0 36.354 29.526">
  <path id="twitter" d="M32.617,55.44c.023.323.023.646.023.969,0,9.85-7.5,21.2-21.2,21.2A21.055,21.055,0,0,1,0,74.263a15.413,15.413,0,0,0,1.8.092,14.922,14.922,0,0,0,9.25-3.183,7.464,7.464,0,0,1-6.966-5.167,9.4,9.4,0,0,0,1.407.115,7.88,7.88,0,0,0,1.961-.254,7.452,7.452,0,0,1-5.974-7.312v-.092a7.5,7.5,0,0,0,3.368.946,7.462,7.462,0,0,1-2.307-9.965A21.178,21.178,0,0,0,17.9,57.24a8.411,8.411,0,0,1-.185-1.707,7.458,7.458,0,0,1,12.895-5.1,14.669,14.669,0,0,0,4.729-1.8,7.431,7.431,0,0,1-3.276,4.106,14.936,14.936,0,0,0,4.29-1.153A16.016,16.016,0,0,1,32.617,55.44Z" transform="translate(0 -48.082)" fill="#1f9deb"/>
</svg>
